<svg width="702" height="153" viewBox="0 0 702 153" fill="none" xmlns="http://www.w3.org/2000/svg">
<path opacity="0.92" d="M63.7244 37.546C54.5566 62.0004 15.7953 62.7266 18.1198 63.9365C45.8246 78.3567 80.4553 74.562 80.4553 74.562C80.4553 74.562 119.704 71.9052 123.7 50.2219C127.697 28.5386 116.648 17.9141 100.116 14.4193C90.0547 12.2924 72.578 13.93 63.7244 37.546Z" fill="white"/>
<g filter="url(#filter0_d_661_16)">
<path d="M60.5777 46.1227C69.3847 71.3805 107.221 67.916 105.103 68.8598C90.6418 75.302 60.466 79.7555 34.3191 70.7546C19.0573 65.5008 3.11411 57.982 3.11328 41.1963C3.11261 27.5009 16.9577 13.07 32.7969 13.5323C49.5136 14.0203 51.0637 18.8375 60.5777 46.1227Z" fill="white"/>
</g>
<path opacity="0.97" d="M63.7244 114.598C57.5527 96.001 15.7953 89.4172 18.1198 88.2073C45.8246 73.7871 80.4553 77.5818 80.4553 77.5818C80.4553 77.5818 118.348 78.843 123.7 101.922C129.053 125.001 108.553 135.942 100.116 137.724C87.0526 140.484 70.9565 136.39 63.7244 114.598Z" fill="url(#paint0_linear_661_16)"/>
<g filter="url(#filter1_d_661_16)">
<path d="M60.5782 106.362C69.3853 80.1513 107.222 83.7465 105.104 82.7671C90.6424 76.0818 60.5782 72.1492 34.3197 80.8009C23.0547 84.5124 4.55469 94.0001 3.11382 111.475C1.67296 128.949 14.0396 141.29 32.7974 140.182C51.5552 139.075 56.3318 119 60.5782 106.362Z" fill="url(#paint1_linear_661_16)"/>
</g>
<path d="M208.281 102.997H160.857V86.8691H207.513C209.913 86.8691 211.641 85.3331 211.641 82.6451C211.641 79.9571 209.913 78.3251 207.513 78.3251H180.057C168.441 78.3251 160.089 70.6451 160.089 59.5091C160.089 48.1811 168.441 40.5971 180.057 40.5971H227.481V56.6291H180.825C178.425 56.6291 176.793 58.0691 176.793 60.7571C176.793 63.3491 178.425 64.9811 180.825 64.9811H208.281C219.993 64.9811 228.345 72.7571 228.345 83.8931C228.345 95.4131 219.993 102.997 208.281 102.997ZM298.083 102.997H294.723C290.211 102.997 288.387 101.365 285.123 97.7171L252.963 62.9651V102.997H236.643V47.7011C236.643 42.9971 239.235 40.5971 244.419 40.5971H248.451C253.635 40.5971 255.747 42.0371 258.627 45.2051L288.099 76.9811V40.5971H304.323V96.5651C304.323 100.789 302.211 102.997 298.083 102.997ZM331.631 102.997H314.831V40.5971H331.631V102.997ZM378.59 102.997H361.79V56.6291H338.846V40.5971H401.534V56.6291H378.59V102.997ZM468 78.3251H431.136V64.9811H468V78.3251ZM468.768 102.997H408.768V40.5971H468.672V56.6291H425.568V86.8691H468.768V102.997ZM540.054 102.997H509.526C490.422 102.997 476.502 90.4211 476.502 71.7971C476.502 53.1731 490.422 40.5971 509.526 40.5971H540.054V56.6291H508.374C499.638 56.6291 493.206 62.7731 493.206 71.7971C493.206 80.7251 499.638 86.8691 508.374 86.8691H540.054V102.997ZM613.039 102.997H596.239V78.8051H571.855V63.5411H596.239V40.5971H613.039V102.997ZM566.287 102.997H549.487V40.5971H566.287V102.997ZM696.507 102.997H675.291L656.859 81.4931L638.907 102.997H618.939L646.299 70.4531L621.147 40.5971H642.363L658.203 59.5091L674.139 40.5971H694.107L668.859 70.5491L696.507 102.997Z" fill="white"/>
<defs>
<filter id="filter0_d_661_16" x="0.413281" y="6.82148" width="111.476" height="71.7105" filterUnits="userSpaceOnUse" color-interpolation-filters="sRGB">
<feFlood flood-opacity="0" result="BackgroundImageFix"/>
<feColorMatrix in="SourceAlpha" type="matrix" values="0 0 0 0 0 0 0 0 0 0 0 0 0 0 0 0 0 0 127 0" result="hardAlpha"/>
<feOffset dx="2" dy="-2"/>
<feGaussianBlur stdDeviation="2.35"/>
<feComposite in2="hardAlpha" operator="out"/>
<feColorMatrix type="matrix" values="0 0 0 0 0 0 0 0 0 0 0 0 0 0 0 0 0 0 0.25 0"/>
<feBlend mode="normal" in2="BackgroundImageFix" result="effect1_dropShadow_661_16"/>
<feBlend mode="normal" in="SourceGraphic" in2="effect1_dropShadow_661_16" result="shape"/>
</filter>
<filter id="filter1_d_661_16" x="0" y="71.8281" width="110.189" height="72.4233" filterUnits="userSpaceOnUse" color-interpolation-filters="sRGB">
<feFlood flood-opacity="0" result="BackgroundImageFix"/>
<feColorMatrix in="SourceAlpha" type="matrix" values="0 0 0 0 0 0 0 0 0 0 0 0 0 0 0 0 0 0 127 0" result="hardAlpha"/>
<feOffset dx="1"/>
<feGaussianBlur stdDeviation="2"/>
<feComposite in2="hardAlpha" operator="out"/>
<feColorMatrix type="matrix" values="0 0 0 0 0 0 0 0 0 0 0 0 0 0 0 0 0 0 0.25 0"/>
<feBlend mode="normal" in2="BackgroundImageFix" result="effect1_dropShadow_661_16"/>
<feBlend mode="normal" in="SourceGraphic" in2="effect1_dropShadow_661_16" result="shape"/>
</filter>
<linearGradient id="paint0_linear_661_16" x1="66.4328" y1="74.7543" x2="80.6127" y2="141.846" gradientUnits="userSpaceOnUse">
<stop stop-color="#A8D6EE"/>
<stop offset="0.583693" stop-color="white"/>
</linearGradient>
<linearGradient id="paint1_linear_661_16" x1="16.0566" y1="121.001" x2="90.9174" y2="72.1985" gradientUnits="userSpaceOnUse">
<stop offset="0.201923" stop-color="white"/>
<stop offset="1" stop-color="#D3E8FF"/>
</linearGradient>
</defs>
</svg>
