<svg width="701" height="153" viewBox="0 0 701 153" fill="none" xmlns="http://www.w3.org/2000/svg">
<path opacity="0.72" d="M63.3104 37.546C54.1426 62.0004 15.3812 62.7266 17.7057 63.9365C45.4105 78.3567 80.0412 74.562 80.0412 74.562C80.0412 74.562 119.29 71.9052 123.286 50.2219C127.283 28.5386 116.233 17.9141 99.7019 14.4193C89.6407 12.2924 72.1639 13.93 63.3104 37.546Z" fill="url(#paint0_linear_659_3)"/>
<g filter="url(#filter0_d_659_3)">
<path d="M60.1636 46.1227C68.9707 71.3805 106.807 67.916 104.689 68.8598C90.2277 75.302 60.0519 79.7555 33.9051 70.7546C18.6433 65.5008 2.70004 57.982 2.69922 41.1963C2.69855 27.5009 16.5437 13.07 32.3828 13.5323C49.0996 14.0203 50.6496 18.8375 60.1636 46.1227Z" fill="#003480"/>
</g>
<path opacity="0.72" d="M63.3104 114.598C57.1387 96.001 15.3813 89.4172 17.7058 88.2073C45.4106 73.7871 80.0412 77.5818 80.0412 77.5818C80.0412 77.5818 117.934 78.843 123.286 101.922C128.639 125.001 108.139 135.942 99.7019 137.724C86.6386 140.484 70.5424 136.39 63.3104 114.598Z" fill="url(#paint1_linear_659_3)"/>
<path d="M60.1642 106.362C68.9712 80.1513 106.808 83.7465 104.69 82.7671C90.2283 76.0818 60.1642 72.1492 33.9056 80.8009C22.6406 84.5124 4.14063 94.0001 2.69976 111.475C1.25889 128.949 13.6255 141.29 32.3834 140.182C51.1412 139.075 55.9177 119 60.1642 106.362Z" fill="url(#paint2_linear_659_3)"/>
<path d="M207.865 102.997H160.441V86.8691H207.097C209.497 86.8691 211.225 85.3331 211.225 82.6451C211.225 79.9571 209.497 78.3251 207.097 78.3251H179.641C168.025 78.3251 159.673 70.6451 159.673 59.5091C159.673 48.1811 168.025 40.5971 179.641 40.5971H227.065V56.6291H180.409C178.009 56.6291 176.377 58.0691 176.377 60.7571C176.377 63.3491 178.009 64.9811 180.409 64.9811H207.865C219.577 64.9811 227.929 72.7571 227.929 83.8931C227.929 95.4131 219.577 102.997 207.865 102.997ZM297.667 102.997H294.307C289.795 102.997 287.971 101.365 284.707 97.7171L252.547 62.9651V102.997H236.227V47.7011C236.227 42.9971 238.819 40.5971 244.003 40.5971H248.035C253.219 40.5971 255.331 42.0371 258.211 45.2051L287.683 76.9811V40.5971H303.907V96.5651C303.907 100.789 301.795 102.997 297.667 102.997ZM331.215 102.997H314.415V40.5971H331.215V102.997ZM378.174 102.997H361.374V56.6291H338.43V40.5971H401.118V56.6291H378.174V102.997ZM467.584 78.3251H430.72V64.9811H467.584V78.3251ZM468.352 102.997H408.352V40.5971H468.256V56.6291H425.152V86.8691H468.352V102.997ZM539.638 102.997H509.11C490.006 102.997 476.086 90.4211 476.086 71.7971C476.086 53.1731 490.006 40.5971 509.11 40.5971H539.638V56.6291H507.958C499.222 56.6291 492.79 62.7731 492.79 71.7971C492.79 80.7251 499.222 86.8691 507.958 86.8691H539.638V102.997ZM612.623 102.997H595.823V78.8051H571.439V63.5411H595.823V40.5971H612.623V102.997ZM565.871 102.997H549.071V40.5971H565.871V102.997ZM696.091 102.997H674.875L656.443 81.4931L638.491 102.997H618.523L645.883 70.4531L620.731 40.5971H641.947L657.787 59.5091L673.723 40.5971H693.691L668.443 70.5491L696.091 102.997Z" fill="#003480"/>
<defs>
<filter id="filter0_d_659_3" x="-0.000781059" y="6.82148" width="111.476" height="71.7105" filterUnits="userSpaceOnUse" color-interpolation-filters="sRGB">
<feFlood flood-opacity="0" result="BackgroundImageFix"/>
<feColorMatrix in="SourceAlpha" type="matrix" values="0 0 0 0 0 0 0 0 0 0 0 0 0 0 0 0 0 0 127 0" result="hardAlpha"/>
<feOffset dx="2" dy="-2"/>
<feGaussianBlur stdDeviation="2.35"/>
<feComposite in2="hardAlpha" operator="out"/>
<feColorMatrix type="matrix" values="0 0 0 0 0 0 0 0 0 0 0 0 0 0 0 0 0 0 0.25 0"/>
<feBlend mode="normal" in2="BackgroundImageFix" result="effect1_dropShadow_659_3"/>
<feBlend mode="normal" in="SourceGraphic" in2="effect1_dropShadow_659_3" result="shape"/>
</filter>
<linearGradient id="paint0_linear_659_3" x1="119.612" y1="28.6741" x2="66.7084" y2="78.1256" gradientUnits="userSpaceOnUse">
<stop stop-color="#91CCEA"/>
<stop offset="1" stop-color="#3AA3D3"/>
</linearGradient>
<linearGradient id="paint1_linear_659_3" x1="66.0187" y1="74.7543" x2="80.1986" y2="141.846" gradientUnits="userSpaceOnUse">
<stop stop-color="#A8D6EE"/>
<stop offset="1" stop-color="#009BE3"/>
</linearGradient>
<linearGradient id="paint2_linear_659_3" x1="15.6426" y1="121.001" x2="90.5033" y2="72.1985" gradientUnits="userSpaceOnUse">
<stop offset="0.201923" stop-color="#0194D7"/>
<stop offset="1" stop-color="#074B94"/>
</linearGradient>
</defs>
</svg>
